<svg width="281" height="237" viewBox="0 0 281 237" fill="none" xmlns="http://www.w3.org/2000/svg">
<path d="M275.85 148.138C269.489 172.726 255.335 194.594 235.508 210.467C215.681 226.34 191.247 235.365 165.862 236.191C140.477 237.018 115.508 229.601 94.6901 215.051C73.8726 200.501 58.327 179.601 50.38 155.478H0V138.478H46.15C45.61 135.248 45.15 131.978 44.92 128.658H8.78V111.658H44.73C44.92 108.348 45.26 105.078 45.73 101.848H0V84.8478H49.5C55.5589 64.8392 66.8369 46.8051 82.1746 32.5992C97.5124 18.3933 116.357 8.52816 136.77 4.01782L194.27 63.6078C183.14 57.1122 170.307 54.1321 157.454 55.0587C144.601 55.9852 132.328 60.775 122.245 68.7997C112.162 76.8245 104.74 87.7094 100.953 100.027C97.1657 112.344 97.1896 125.519 101.022 137.822C104.854 150.125 112.316 160.983 122.428 168.971C132.54 176.959 144.83 181.704 157.686 182.584C170.543 183.464 183.365 180.437 194.471 173.901C205.577 167.365 214.448 157.625 219.92 145.958H162.03V92.0578H221.71L273.71 145.958L275.85 148.138Z" fill="white"/>
<path d="M280.991 113.978C280.958 94.4176 275.866 75.1985 266.211 58.1878L265.311 56.5778C265.021 56.0478 264.671 55.5778 264.311 55.0178L262.311 51.9178C261.661 50.9178 260.921 49.9178 260.231 48.9178L259.181 47.4078C258.841 46.9078 258.471 46.4078 258.091 45.9378C256.581 44.0078 255.091 42.0378 253.481 40.2278C252.681 39.2978 251.901 38.3578 251.081 37.4578L248.551 34.7878C234.919 20.6759 217.892 10.3012 199.101 4.65778C189.793 1.87629 180.161 0.329725 170.451 0.0577778C168.041 -0.0722222 165.621 0.0577778 163.211 0.0577778C160.801 0.0577778 158.401 0.267779 156.021 0.527779C153.641 0.787779 151.241 1.09778 148.891 1.52778C146.541 1.95778 144.181 2.41777 141.891 3.00777C144.271 2.78777 146.641 2.57778 149.021 2.47778C151.401 2.37778 153.761 2.29778 156.131 2.30778C158.501 2.31778 160.871 2.35778 163.221 2.54778C165.571 2.73778 167.931 2.81778 170.271 3.15778L172.061 3.36778C174.212 10.1773 176.76 16.8554 179.691 23.3678C176.756 24.3375 173.923 25.5901 171.231 27.1078C174.019 25.757 176.933 24.6819 179.931 23.8978C182.357 29.2311 185.024 34.4778 187.931 39.6378C194.592 51.3443 202.48 62.3093 211.461 72.3478L207.561 76.4378L211.891 72.8278L212.331 73.3178C221.676 83.6122 232.111 92.8629 243.451 100.908C248.424 104.461 253.537 107.794 258.791 110.908C258.791 110.978 258.731 111.038 258.711 111.108C258.1 112.687 257.371 114.218 256.531 115.688C257.466 114.27 258.292 112.782 259.001 111.238L259.081 111.068C265.29 114.709 271.697 118.004 278.271 120.938C278.474 128.146 278.103 135.359 277.161 142.508C279.732 133.217 281.021 123.618 280.991 113.978ZM260.991 61.2178L262.771 64.2178L264.401 67.2878L265.221 68.8278C265.481 69.3378 265.711 69.8778 265.971 70.3978L267.471 73.5478C267.981 74.5978 268.381 75.6878 268.841 76.7578C269.301 77.8278 269.771 78.8878 270.151 79.9978C270.531 81.1078 270.871 81.9378 271.221 82.9078C268.891 81.5778 266.581 80.2378 264.311 78.8378C264.244 77.9111 264.154 76.9811 264.041 76.0478C263.621 72.6242 263 69.2283 262.181 65.8778C261.711 64.2178 261.321 62.5278 260.771 60.8778V60.7678L260.991 61.2178ZM247.681 43.0578L247.791 42.9678L248.271 43.7278C251.025 48.1005 253.461 52.6656 255.561 57.3878L256.561 59.6678L257.461 61.9978C258.091 63.5378 258.571 65.1278 259.111 66.7078C260.109 69.8828 260.913 73.1154 261.521 76.3878C261.521 76.6478 261.601 76.9078 261.651 77.1678C258.461 75.1678 255.351 73.0778 252.341 70.8678C245.669 66.0314 239.466 60.5809 233.811 54.5878L247.681 43.0578ZM243.381 38.4778L243.641 38.6778L231.201 51.6778C226.149 45.9119 221.63 39.6998 217.701 33.1178C215.791 29.9578 214.021 26.7178 212.341 23.4078C218.335 24.8159 224.135 26.9517 229.611 29.7678C234.446 32.2646 239.053 35.179 243.381 38.4778ZM227.231 24.7578C222.059 22.8128 216.696 21.4217 211.231 20.6078H210.881C209.741 18.2611 208.634 15.8811 207.561 13.4678C214.455 16.6087 221.041 20.3885 227.231 24.7578ZM172.381 3.39777L173.781 3.54778L177.261 4.11778C179.581 4.44778 181.861 4.99778 184.151 5.48778C185.301 5.70778 186.431 6.04777 187.561 6.32777L190.951 7.21778L194.291 8.21778C195.411 8.56778 196.521 8.90777 197.611 9.32777C200.651 10.4078 203.651 11.6044 206.611 12.9178C207.117 15.3778 207.731 17.8111 208.451 20.2178C202.523 19.5951 196.541 19.7396 190.651 20.6478C187.854 21.0852 185.089 21.6998 182.371 22.4878C178.801 16.2778 175.501 9.88777 172.381 3.39777ZM191.381 37.5778C188.361 32.9111 185.481 28.1244 182.741 23.2178C185.398 22.6267 188.09 22.2025 190.801 21.9478C196.954 21.3871 203.156 21.6765 209.231 22.8078C210.62 27.0054 212.29 31.1047 214.231 35.0778C217.821 42.4143 222.356 49.2491 227.721 55.4078L215.081 68.6478C206.349 58.9375 198.404 48.5481 191.321 37.5778H191.381ZM245.911 97.7378L238.061 91.1978L230.471 84.3978L223.171 77.2878C220.841 74.8178 218.471 72.3878 216.171 69.8978L215.881 69.5778L229.931 57.8878C235.9 64.2386 242.709 69.743 250.171 74.2478C254.029 76.5713 258.038 78.6359 262.171 80.4278C262.421 82.4278 262.601 84.3778 262.691 86.3678C262.822 89.7052 262.705 93.0477 262.341 96.3678C261.963 99.7131 261.294 103.019 260.341 106.248C260.151 106.888 259.961 107.528 259.751 108.168C255.011 104.828 250.377 101.351 245.851 97.7378H245.911ZM260.231 108.518C260.511 107.848 260.761 107.168 261.001 106.518C262.155 103.299 263.028 99.987 263.611 96.6178C264.199 93.2409 264.533 89.8246 264.611 86.3978C264.611 84.7478 264.611 83.0978 264.531 81.3978C266.871 82.3378 269.241 83.1811 271.641 83.9278C271.961 84.8078 272.261 85.6878 272.521 86.5878L273.521 89.9278L274.411 93.3178C275.041 95.5678 275.411 97.8678 275.961 100.158C276.241 101.298 276.381 102.458 276.581 103.608L277.151 107.088L277.541 110.588C277.681 111.758 277.821 112.928 277.881 114.098C278.081 116.278 278.211 118.468 278.291 120.658C272.131 116.738 266.081 112.708 260.171 108.518H260.231Z" fill="white"/>
</svg>
